<svg xmlns="http://www.w3.org/2000/svg" version="1.1" viewBox="-5.0 -10.0 110.0 135.0">
 <path d="m38.375 35.203c3.0469-1.5586 7.1992-2.5234 11.734-2.5234s8.6875 0.96484 11.734 2.5234c3.4688 1.7734 5.6133 4.3711 5.6133 7.375s-2.1445 5.6016-5.6133 7.375c-3.0469 1.5586-7.1992 2.5234-11.734 2.5234s-8.6875-0.96484-11.734-2.5234c-3.4688-1.7734-5.6133-4.3711-5.6133-7.375s2.1445-5.6016 5.6133-7.375zm-19.785-12.387c-8.3945 5.0078-13.59 12.031-13.59 19.887v14.594c0 7.8555 5.1914 14.879 13.59 19.887 8.0781 4.8164 19.188 7.7969 31.41 7.7969s23.332-2.9805 31.41-7.7969c8.3945-5.0078 13.59-12.031 13.59-19.887v-14.594c0-7.8555-5.1914-14.879-13.59-19.887-8.0781-4.8164-19.188-7.7969-31.41-7.7969s-23.332 2.9805-31.41 7.7969zm19.98 22.352c1.4023-0.68359 3.0312-1.2422 4.8125-1.6445 2.0469-0.46484 4.2891-0.71875 6.6211-0.71875 2.332 0 4.5742 0.25781 6.6211 0.71875 1.8398 0.41406 3.5117 0.99609 4.9453 1.7109 1.0781-0.82422 1.6992-1.7383 1.6992-2.6523 0-1.3086-1.2695-2.6094-3.3203-3.6602-2.4727-1.2656-5.9453-2.0469-9.8359-2.0469s-7.3633 0.78125-9.8359 2.0469c-2.0508 1.0508-3.3203 2.3516-3.3203 3.6602 0 0.89062 0.58984 1.7812 1.6172 2.5898zm17.367 2.4844c-0.078125-0.019532-0.15625-0.035156-0.23047-0.054688-1.7227-0.39062-3.6484-0.60547-5.7031-0.60547-2.0547 0-3.9805 0.21484-5.7031 0.60547-0.042969 0.007813-0.082031 0.019532-0.125 0.027344 1.7891 0.42188 3.8008 0.66016 5.9375 0.66016 2.0938 0 4.0664-0.22656 5.8281-0.63281zm34.875 5.4688v4.1797c0 6.2773-4.4102 12.051-11.543 16.301-7.4492 4.4453-17.797 7.1914-29.266 7.1914-11.473 0-21.816-2.75-29.266-7.1914-7.1328-4.2539-11.543-10.023-11.543-16.301v-4.6133c2.3711 1.9531 5.293 3.4023 7.1797 4.207 1.1719 0.49609 1.8047 1.5859 2.1562 2.8711 0.42969 1.5742 0.46094 3.5312 0.46094 5.2344 0 1.5586 0.63672 2.9688 1.6602 3.9922 1.0234 1.0234 2.4375 1.6602 3.9922 1.6602 1.5586 0 2.9336-0.62891 3.9453-1.6406 1.0039-1.0039 1.6406-2.3984 1.6992-3.9297 0.003907-0.13672 0.023438-0.26562 0.050782-0.39062 0.09375-0.39844 0.35156-0.64844 0.65234-0.80078 0.44922-0.22656 0.98437-0.29297 1.3984-0.27734 0.10156 0.003907 0.18359 0.015625 0.24219 0.027344 0.76953 0.17969 1.6445 0.96484 2.5312 1.7617 1.4453 1.3008 2.9141 2.6172 5.1289 2.9258 2.0586 0.28516 3.9648-0.25391 5.9023-0.80469 1.3203-0.375 2.6562-0.75391 3.8477-0.75391 0.28125 0 0.56641 0.019531 0.85547 0.054688 0.32422 0.039062 0.63281 0.09375 0.92969 0.15625 0.67188 0.14453 1.2109 0.41406 1.5508 0.79688 0.26953 0.30078 0.42188 0.71875 0.42188 1.2461 0 0.070312 0.003907 0.13672 0.011719 0.20312l0.015625 1.8008c0.015625 1.5586 0.64844 2.9688 1.6602 3.9805 1.0195 1.0195 2.4258 1.6523 3.9805 1.6523v-0.007812h0.027344c1.5469-0.007813 2.9492-0.64062 3.9609-1.6523 1.0234-1.0234 1.6641-2.4297 1.6641-3.9766h-0.007813c-0.003906-1.2305-0.011719-2.4609-0.019531-3.6875h0.007812c0-0.46484 0.10547-0.88281 0.30469-1.2305 0.20703-0.36328 0.51953-0.67969 0.92578-0.92578 0.32422-0.19922 0.66016-0.38672 1.0195-0.5625 0.32031-0.15625 0.61328-0.27734 0.875-0.35547 0.93359-0.26953 2.1484-0.23047 3.3398-0.19531 1.832 0.058594 3.625 0.11719 5.3438-0.69531 1.8281-0.86328 2.9062-2.3711 3.957-3.8398 0.59766-0.83203 1.1797-1.6484 1.7188-2.0352 1.1133-0.80469 2.25-1.2383 3.3477-1.6523 1.6797-0.63672 3.2852-1.2461 4.8828-2.7266zm-81.621-7.7695c0 1.2031 0.8125 2.3984 1.9453 3.4766 2.0391 1.9414 5.0195 3.4258 6.8711 4.2148 2.5703 1.0938 3.8828 3.1992 4.543 5.6211 0.58203 2.1328 0.625 4.3906 0.625 6.3281 0 0.39844 0.16406 0.76562 0.42969 1.0312 0.26562 0.26562 0.63281 0.42969 1.0312 0.42969 0.38281 0 0.72656-0.15625 0.98438-0.41016 0.28906-0.28906 0.47266-0.69141 0.48828-1.1328 0.015625-0.42188 0.066406-0.80469 0.14844-1.1562 0.42188-1.8164 1.5547-2.9414 2.8633-3.6016 1.1602-0.58203 2.4531-0.75781 3.4258-0.71875 0.38281 0.015625 0.72656 0.0625 1.0117 0.125 1.8359 0.42578 3.1094 1.5664 4.3984 2.7266 0.97656 0.875 1.9648 1.7656 2.9023 1.8945 1.1875 0.16406 2.6836-0.25781 4.1992-0.6875 1.6055-0.45313 3.2344-0.91406 4.9766-0.91406 0.45312 0 0.91016 0.03125 1.3633 0.089844 0.41406 0.050781 0.84766 0.12891 1.2891 0.22266 1.543 0.32812 2.8633 1.043 3.8086 2.1055 0.94141 1.0586 1.4883 2.4141 1.4883 4.0273 0 0.054687-0.003906 0.10937-0.007813 0.16406l0.015626 1.8086c0.003906 0.40234 0.17578 0.77734 0.44922 1.0547 0.26172 0.26172 0.62109 0.42578 1.0195 0.42578v0.007813h0.011718c0.39453-0.003906 0.76172-0.17188 1.0312-0.44141 0.25781-0.25781 0.41797-0.61719 0.41797-1.0117h0.007813c-0.003907-1.2266-0.035157-2.4648-0.019532-3.6875h-0.007812c0-1.1875 0.30078-2.3047 0.85938-3.293 0.55859-0.98438 1.3633-1.8125 2.3789-2.4336 0.46484-0.28516 0.92188-0.54688 1.3633-0.75781 0.48047-0.23438 0.98828-0.4375 1.5469-0.60156 1.5703-0.45703 3.1172-0.40625 4.6328-0.35937 1.3203 0.042968 2.6094 0.082031 3.4258-0.30078 0.83203-0.39062 1.5938-1.4609 2.3398-2.4961 0.78516-1.0977 1.5508-2.168 2.6836-2.9844 1.5742-1.1367 2.9688-1.6641 4.3125-2.1797 2.1719-0.82422 4.1836-1.5898 6.3555-6.168v-3.0625c0-6.2773-4.4102-12.051-11.543-16.301-7.4492-4.4453-17.797-7.1914-29.266-7.1914-11.473 0-21.816 2.75-29.266 7.1914-7.1328 4.2539-11.543 10.023-11.543 16.301v2.6445zm75.398-7.4492c1.0742 0.41016 1.6133 1.6172 1.2031 2.6914-0.41016 1.0742-1.6172 1.6133-2.6914 1.2031l-2.1406-0.82422c-1.0742-0.41016-1.6133-1.6172-1.2031-2.6914 0.41016-1.0742 1.6172-1.6133 2.6914-1.2031zm-12.02-7.1094-2.1406-0.82422c-1.0742-0.41016-2.2812 0.12891-2.6914 1.2031-0.41016 1.0742 0.12891 2.2812 1.2031 2.6914l2.1406 0.82422c1.0742 0.41016 2.2812-0.12891 2.6914-1.2031 0.41016-1.0742-0.12891-2.2812-1.2031-2.6914zm-45.113 1.043c1.0742 0.41016 1.6133 1.6172 1.2031 2.6914-0.41016 1.0742-1.6172 1.6133-2.6914 1.2031l-2.1406-0.82422c-1.0742-0.41016-1.6133-1.6172-1.2031-2.6914 0.41016-1.0742 1.6172-1.6133 2.6914-1.2031zm16.105 23.938c1.0742 0.41016 1.6133 1.6172 1.2031 2.6914-0.41016 1.0742-1.6172 1.6133-2.6914 1.2031l-2.1406-0.82422c-1.0742-0.41016-1.6133-1.6172-1.2031-2.6914 0.41016-1.0742 1.6172-1.6133 2.6914-1.2031zm24.59-3.918-2.1406-0.82422c-1.0742-0.41016-2.2812 0.12891-2.6914 1.2031-0.41016 1.0742 0.12891 2.2812 1.2031 2.6914l2.1406 0.82422c1.0742 0.41016 2.2812-0.12891 2.6914-1.2031 0.41016-1.0742-0.12891-2.2812-1.2031-2.6914zm6.5-7.8867c0.41016-1.0742 1.6172-1.6133 2.6914-1.2031s1.6133 1.6172 1.2031 2.6914l-0.82422 2.1406c-0.41016 1.0742-1.6172 1.6133-2.6914 1.2031-1.0742-0.41016-1.6133-1.6172-1.2031-2.6914zm-48.648 5.7227c0.41016-1.0742 1.6172-1.6133 2.6914-1.2031 1.0742 0.41016 1.6133 1.6172 1.2031 2.6914l-0.82422 2.1406c-0.41016 1.0742-1.6172 1.6133-2.6914 1.2031-1.0742-0.41016-1.6133-1.6172-1.2031-2.6914zm-8.1836-7.5039c-0.55859-1.0078-0.19922-2.2773 0.80859-2.8398 1.0078-0.55859 2.2773-0.19922 2.8398 0.80859l1.1094 2.0039c0.55859 1.0078 0.19922 2.2773-0.80859 2.8398-1.0078 0.55859-2.2773 0.19922-2.8398-0.80859zm24.355-16.148c1.0742 0.41016 1.6133 1.6172 1.2031 2.6914s-1.6172 1.6133-2.6914 1.2031l-2.1406-0.82422c-1.0742-0.41016-1.6133-1.6172-1.2031-2.6914s1.6172-1.6133 2.6914-1.2031zm15.609-1.5586c1.0742 0.41016 1.6133 1.6172 1.2031 2.6914-0.41016 1.0742-1.6172 1.6133-2.6914 1.2031l-2.1406-0.82422c-1.0742-0.41016-1.6133-1.6172-1.2031-2.6914s1.6172-1.6133 2.6914-1.2031z" fill-rule="evenodd"/>
<text x="0.0" y="117.5" font-size="5.0" font-weight="bold" font-family="Arbeit Regular, Helvetica, Arial-Unicode, Arial, Sans-serif" fill="#000000">Created by Happy Girl</text><text x="0.0" y="122.5" font-size="5.0" font-weight="bold" font-family="Arbeit Regular, Helvetica, Arial-Unicode, Arial, Sans-serif" fill="#000000">from Noun Project</text></svg>